HIERARCHY
ROOT Hips
{
	OFFSET 0.00000 0.00000 0.00000
	CHANNELS 6 Xposition Yposition Zposition Yrotation Zrotation Xrotation 
	JOINT Lumbar
	{
		OFFSET 0 0 0
		CHANNELS 3 Zrotation Xrotation Yrotation
		JOINT Neck
		{
			OFFSET 0.00 0.2701 0.00
			CHANNELS 3 Zrotation Xrotation Yrotation
			End Site
			{
				OFFSET 0.00 0.1379 0.00
			}
		}
		JOINT RightShoulder
		{
			OFFSET 0.0119 0.2289 0.1181
			CHANNELS 3 Zrotation Xrotation Yrotation
			JOINT RightElbow
			{
				OFFSET 0.00 -0.1475 0.00
				CHANNELS 2 Zrotation Yrotation
				JOINT RightWrist
				{
					OFFSET 0.00 -0.1605 0.00
					CHANNELS 2 Zrotation Xrotation
					End Site
					{
						OFFSET 0.0040 -0.1068 0.0006
					}
				}
			}
		}
		JOINT LeftShoulder
		{
			OFFSET 0.0119 0.2289 -0.1181
			CHANNELS 3 Zrotation Xrotation Yrotation
			JOINT LeftElbow
			{
				OFFSET 0.00 -0.1475 0.00
				CHANNELS 2 Zrotation Yrotation
				JOINT LeftWrist
				{
					OFFSET 0.00 -0.1605 0.00
					CHANNELS 2 Zrotation Xrotation
					End Site
					{
						OFFSET 0.0040 -0.1068 -0.0006
					}
				}
			}
		}
	}
	JOINT RightHip
	{
		OFFSET 0.0316 -0.0424 0.0458
		CHANNELS 3 Zrotation Xrotation Yrotation
		JOINT RightKnee
		{
			OFFSET 0.00 -0.2438 0.00
			CHANNELS 1 Zrotation
			JOINT RightAnkle
			{
				OFFSET 0.00 -0.2449 0.00
				CHANNELS 3 Zrotation Xrotation Yrotation
				End Site
				{
					OFFSET 0.1237 -0.0542 0.0051
				}
			}
		}
	}
	JOINT LeftHip
	{
		OFFSET 0.0316 -0.0424 -0.0458
		CHANNELS 3 Zrotation Xrotation Yrotation
		JOINT LeftKnee
		{
			OFFSET 0.00 -0.2438 0.00
			CHANNELS 1 Zrotation
			JOINT LeftAnkle
			{
				OFFSET 0.00 -0.2449 0.00
				CHANNELS 3 Zrotation Xrotation Yrotation
				End Site
				{
					OFFSET 0.1237 -0.0542 -0.0051
				}
			}
		}
	}
}
MOTION
Frames: 27
Frame Time: 0.02
7e-05 3e-05 -0.0001 20.97286 -34.45761 -3.7671 56.14818 0.74938 2.72337 -5.6233 -1.82143 -1.05969 114.86914 -79.93441 55.6343 24.46745 102.95745 -55.0851 -5.70339 117.52385 74.86729 -55.63558 22.29825 -98.32845 -50.6548 4.73582 52.08152 -2.04846 -7.17054 -19.68002 -7.65914 -3.6572 -4.07729 56.03956 2.55843 0.49474 -23.97724 -8.61584 3.70098 4.12303
0.00045 0.00011 -0.00017 21.00461 -34.4401 -3.77111 56.21421 0.75509 2.77127 -5.72673 -1.79884 -1.06272 115.27531 -79.57656 55.63425 25.32921 103.8085 -55.36695 -5.66346 117.6769 74.57097 -55.63527 23.09317 -98.86985 -50.91877 4.77769 52.00368 -2.09284 -7.44433 -19.67193 -7.63967 -3.64059 -4.06511 55.97368 2.66286 0.97555 -23.97548 -8.57419 3.64945 4.09703
0.00082 0.00019 -0.00024 21.03632 -34.42261 -3.7751 56.28003 0.76077 2.819 -5.82983 -1.77631 -1.06573 115.68028 -79.21947 55.63421 26.18882 104.65686 -55.64819 -5.62386 117.82936 74.27538 -55.63497 23.88588 -99.41019 -51.18207 4.8195 51.92599 -2.13709 -7.71739 -19.66388 -7.62024 -3.62401 -4.05296 55.90792 2.76704 1.45515 -23.97373 -8.53265 3.59805 4.07109
0.00119 0.00027 -0.00031 21.06799 -34.40515 -3.7791 56.34585 0.76646 2.86675 -5.93294 -1.75378 -1.06874 116.08523 -78.86265 55.63417 27.04799 105.50529 -55.9292 -5.58411 117.98193 73.97994 -55.63467 24.67838 -99.95004 -51.44526 4.86126 51.84838 -2.18133 -7.99035 -19.65581 -7.60083 -3.60745 -4.04082 55.84223 2.87116 1.93452 -23.97197 -8.49112 3.54667 4.04517
0.00157 0.00036 -0.00038 21.09966 -34.38769 -3.7831 56.41188 0.77219 2.91468 -6.03635 -1.73121 -1.07177 116.49132 -78.50524 55.63412 27.90918 106.35641 -56.21074 -5.54393 118.13511 73.68388 -55.63436 25.47303 -100.49064 -51.70903 4.90305 51.77065 -2.2257 -8.26404 -19.64772 -7.58138 -3.59086 -4.02865 55.77644 2.97551 2.41499 -23.97022 -8.4495 3.49517 4.01919
0.00194 0.00044 -0.00045 21.13147 -34.37013 -3.7871 56.47726 0.77777 2.96198 -6.13878 -1.70876 -1.07476 116.89386 -78.14886 55.63408 28.76541 107.19891 -56.49132 -5.50551 118.28601 73.38932 -55.63406 26.26162 -101.03039 -51.9713 4.9449 51.69306 -2.26969 -8.53575 -19.63976 -7.562 -3.57431 -4.01655 55.71075 3.07934 2.89276 -23.96848 -8.40814 3.44397 3.99335
0.00231 0.00052 -0.00052 21.16296 -34.35277 -3.79109 56.54386 0.78364 3.0105 -6.2431 -1.68609 -1.07781 117.30322 -77.79072 55.63404 29.63052 108.05783 -56.77347 -5.4637 118.44141 73.092 -55.63376 27.06145 -101.57139 -52.23639 4.98662 51.61527 -2.31439 -8.81106 -19.63153 -7.54251 -3.55771 -4.00432 55.64494 3.18409 3.37538 -23.9667 -8.36629 3.39224 3.96727
0.00268 0.0006 -0.00059 21.19475 -34.33526 -3.79509 56.60935 0.78924 3.05788 -6.34566 -1.66362 -1.08081 117.70608 -77.43436 55.63399 30.48773 108.90163 -57.05428 -5.42481 118.59252 72.79734 -55.63345 27.85103 -102.11099 -52.49873 5.02838 51.53769 -2.35847 -9.08324 -19.62355 -7.52311 -3.54114 -3.9922 55.57926 3.28801 3.85362 -23.96496 -8.32488 3.34098 3.9414
0.00305 0.00068 -0.00065 21.22691 -34.31741 -3.79911 56.67347 0.79454 3.10394 -6.44619 -1.6414 -1.08376 118.102 -77.07935 55.63395 31.33461 109.72719 -57.3332 -5.39035 118.73901 72.50532 -55.63316 28.628 -102.65019 -52.75841 5.07053 51.4602 -2.40165 -9.35095 -19.61585 -7.50384 -3.52467 -3.98026 55.51359 3.39089 4.32638 -23.96327 -8.28402 3.29034 3.91579
0.00344 0.00077 -0.00073 21.25695 -34.30108 -3.80304 56.74543 0.80163 3.1578 -6.55876 -1.61775 -1.08701 118.5409 -76.71406 55.63392 32.2389 110.65843 -57.62224 -5.333 118.91393 72.19625 -55.63283 29.47733 -103.19569 -53.03554 5.11147 51.38171 -2.44961 -9.64246 -19.6065 -7.4839 -3.50779 -3.9674 55.4474 3.49969 4.83033 -23.9613 -8.24006 3.23626 3.88871
0.00379 0.00084 -0.00079 21.29147 -34.28181 -3.80714 56.80086 0.80492 3.19511 -6.64566 -1.59711 -1.08962 118.88714 -76.37211 55.63385 33.02326 111.36618 -57.89038 -5.32225 119.02769 71.9244 -55.63257 30.17401 -103.72521 -53.27442 5.1543 51.30563 -2.4877 -9.88495 -19.60066 -7.46532 -3.4917 -3.95642 55.38263 3.59601 5.26864 -23.95993 -8.20262 3.18939 3.86471
0.00407 0.00089 -0.00076 21.33848 -34.25235 -3.81174 56.81053 0.79792 3.18739 -6.66378 -1.58486 -1.09045 118.99298 -76.08087 55.63366 33.46544 111.45906 -58.09606 -5.45509 118.98149 71.74523 -55.63249 30.44746 -104.23342 -53.41919 5.20831 51.23372 -2.49663 -9.98147 -19.60434 -7.45085 -3.47825 -3.95106 55.31899 3.65754 5.52388 -23.96003 -8.18335 3.16276 3.84926
0.00431 0.00092 -0.00072 21.38992 -34.22034 -3.81649 56.80366 0.78708 3.163 -6.65584 -1.57561 -1.09065 119.00317 -75.81543 55.63344 33.7893 111.32777 -58.28108 -5.63217 118.87241 71.60515 -55.63248 30.56822 -104.72185 -53.52352 5.26347 51.16468 -2.49599 -10.03059 -19.61157 -7.43768 -3.46552 -3.9475 55.25726 3.70662 5.71371 -23.96075 -8.17058 3.14329 3.83686
0.00457 0.00096 -0.00068 21.43925 -34.19091 -3.82114 56.80462 0.7779 3.14602 -6.65871 -1.56492 -1.09116 119.0481 -75.54698 55.63324 34.17627 111.30016 -58.47968 -5.77828 118.78692 71.45337 -55.63243 30.76199 -105.20401 -53.63929 5.31376 51.09592 -2.50115 -10.10929 -19.61729 -7.42363 -3.45212 -3.94279 55.19647 3.76175 5.93547 -23.96131 -8.15466 3.12023 3.82296
0.00483 0.00101 -0.00064 21.48915 -34.15551 -3.82595 56.80424 0.76905 3.12967 -6.66581 -1.55457 -1.09155 119.12979 -75.24213 55.633 34.52492 111.26468 -58.66313 -5.96887 118.72233 71.27618 -55.6324 30.94108 -105.74866 -53.78432 5.38097 51.02049 -2.50034 -10.15522 -19.62264 -7.41072 -3.44009 -3.93947 55.12811 3.81524 6.148 -23.96139 -8.13958 3.09859 3.80955
0.00507 0.00104 -0.0006 21.53875 -34.13189 -3.83042 56.80271 0.75866 3.10809 -6.65802 -1.54422 -1.09204 119.1121 -75.01878 55.63285 34.92367 111.19221 -58.86999 -6.07914 118.59935 71.16103 -55.63236 31.1134 -106.16085 -53.85875 5.41501 50.95962 -2.50944 -10.25659 -19.62954 -7.39582 -3.42546 -3.93372 55.07589 3.86912 6.36398 -23.96259 -8.12431 3.07571 3.79586
0.00526 0.00105 -0.00054 21.58765 -34.14185 -3.83417 56.80223 0.74464 3.07614 -6.61464 -1.53303 -1.09298 118.84545 -75.01769 55.63301 35.50382 111.07621 -59.17378 -5.94103 118.33045 71.20871 -55.63224 31.31512 -106.19274 -53.74843 5.34148 50.93823 -2.55041 -10.53662 -19.64031 -7.37447 -3.4029 -3.92028 55.06852 3.92768 6.60808 -23.96702 -8.10666 3.04739 3.78059
0.00542 0.00105 -0.00048 21.63584 -34.16367 -3.83751 56.80111 0.72929 3.03955 -6.55733 -1.52177 -1.09405 118.48208 -75.09699 55.63326 36.13556 110.93063 -59.49634 -5.72369 118.00511 71.31712 -55.6321 31.51345 -106.09635 -53.56824 5.23721 50.93138 -2.60128 -10.87158 -19.65243 -7.35119 -3.37782 -3.90444 55.07719 3.98693 6.85739 -23.97251 -8.08865 3.01764 3.76498
0.0056 0.00106 -0.00042 21.68359 -34.17981 -3.84085 56.80016 0.71475 3.00502 -6.50698 -1.51058 -1.09505 118.1612 -75.13726 55.63346 36.73484 110.79554 -59.79303 -5.55268 117.70557 71.3972 -55.63198 31.70625 -106.07049 -53.42003 5.15763 50.91789 -2.64617 -11.17216 -19.66365 -7.32918 -3.35426 -3.89007 55.07806 4.04548 7.10274 -23.97734 -8.07096 2.98871 3.74958
0.00577 0.00106 -0.00036 21.73482 -34.19716 -3.84499 56.79921 0.69913 2.96991 -6.45313 -1.49927 -1.09608 117.84167 -75.18929 55.63371 37.3693 110.66291 -60.164 -5.33879 117.40278 71.48235 -55.6318 31.92317 -105.98934 -53.27011 5.03388 50.90469 -2.69691 -11.5105 -19.67625 -7.30551 -3.32913 -3.87417 55.08122 4.10528 7.35279 -23.98294 -8.05278 2.95923 3.73399
0.00594 0.00106 -0.0003 21.77842 -34.21475 -3.84736 56.79826 0.68558 2.93537 -6.40354 -1.48822 -1.09709 117.49948 -75.2352 55.63387 37.94268 110.52379 -60.38271 -5.19585 117.09471 71.57009 -55.63175 32.09154 -105.99683 -53.10687 4.99353 50.89423 -2.738 -11.7843 -19.6862 -7.28486 -3.30667 -3.86085 55.08333 4.16274 7.59482 -23.98717 -8.03551 2.93055 3.71874
0.00612 0.00108 -0.00026 21.80256 -34.23078 -3.84493 56.79797 0.67749 2.90164 -6.36979 -1.47725 -1.09802 117.10265 -75.24782 55.63374 38.34921 110.35214 -60.19764 -5.25833 116.78165 71.65641 -55.63207 32.12336 -106.24774 -52.93207 5.20183 50.88834 -2.74953 -11.86244 -19.68892 -7.27291 -3.29217 -3.85538 55.07921 4.21411 7.81646 -23.98741 -8.02022 2.9037 3.70406
0.00629 0.00111 -0.00023 21.81877 -34.24654 -3.84072 56.79769 0.67164 2.86908 -6.34081 -1.46664 -1.09894 116.68957 -75.25084 55.63353 38.69049 110.18043 -59.85608 -5.39589 116.46641 71.7419 -55.63252 32.10797 -106.59754 -52.74577 5.49307 50.88461 -2.75111 -11.8746 -19.68884 -7.26411 -3.28046 -3.85257 55.07341 4.26303 8.02951 -23.98623 -8.00593 2.87781 3.68981
0.00647 0.00113 -0.00019 21.83766 -34.26194 -3.83733 56.79713 0.6652 2.83735 -6.30938 -1.45625 -1.09986 116.29497 -75.25589 55.63337 39.0527 110.02392 -59.57071 -5.50619 116.15516 71.82343 -55.6329 32.11699 -106.92483 -52.55853 5.73924 50.87947 -2.75761 -11.91995 -19.68975 -7.25397 -3.26748 -3.84844 55.06797 4.31282 8.245 -23.98566 -7.99154 2.85192 3.67564
0.00664 0.00115 -0.00016 21.86041 -34.27968 -3.83391 56.79766 0.65698 2.79977 -6.27868 -1.44424 -1.1008 115.8509 -75.2733 55.63316 39.4531 109.80122 -59.34384 -5.58756 115.82895 71.92535 -55.63332 32.11274 -107.15681 -52.39146 6.01556 50.87652 -2.76283 -11.95408 -19.69189 -7.24337 -3.25435 -3.8447 55.06468 4.3638 8.46732 -23.98528 -7.97562 2.82412 3.66029
0.00681 0.00117 -0.00013 21.87327 -34.29246 -3.83011 56.79597 0.65293 2.77462 -6.24771 -1.43569 -1.10169 115.50629 -75.26204 55.63303 39.75823 109.71798 -58.96422 -5.74459 115.53449 71.98388 -55.63367 32.12567 -107.6076 -52.18482 6.24909 50.86949 -2.76817 -11.99468 -19.6908 -7.2345 -3.24229 -3.84082 55.05645 4.41153 8.67267 -23.98415 -7.96313 2.80055 3.64752
0.00697 0.0012 -0.00012 21.86031 -34.29041 -3.82587 56.78795 0.66047 2.78446 -6.21575 -1.4366 -1.10241 115.44912 -75.17051 55.63317 39.81351 110.00955 -58.14566 -6.12285 115.32495 71.9218 -55.63377 32.19263 -108.68205 -51.83594 6.34517 50.84927 -2.7768 -12.07343 -19.68132 -7.2295 -3.23218 -3.8357 55.03355 4.45223 8.83879 -23.98119 -7.95998 2.78837 3.64176
